<svg version="1.1" id="Layer_1" xmlns="http://www.w3.org/2000/svg" xmlns:xlink="http://www.w3.org/1999/xlink" x="0px" y="0px"
	 width="100%" viewBox="0 0 2200 2200" enable-background="new 0 0 2200 2200" xml:space="preserve">
<path fill="#FFFFFF" opacity="1.000000" stroke="none" 
	d="
M1518.000000,2202.000000 
	C1012.057251,2202.000000 507.114441,2202.000000 2.085831,2202.000000 
	C2.085831,1468.807007 2.085831,735.613953 2.085831,2.210471 
	C735.109863,2.210471 1468.219849,2.210471 2201.665039,2.210471 
	C2201.665039,735.333191 2201.665039,1468.666626 2201.665039,2202.000000 
	C1974.279785,2202.000000 1746.639893,2202.000000 1518.000000,2202.000000 
M1505.000000,1876.421631 
	C1568.991577,1876.421143 1632.983032,1876.447510 1696.974609,1876.382812 
	C1704.296997,1876.375488 1711.712158,1876.509155 1718.926514,1875.475586 
	C1777.947998,1867.018921 1821.587524,1817.166992 1821.812500,1757.297729 
	C1822.129272,1672.975708 1821.945068,1588.651611 1821.875122,1504.328491 
	C1821.857544,1483.107544 1809.479492,1470.715576 1788.381714,1470.576050 
	C1768.718262,1470.446045 1749.053223,1470.566772 1729.388916,1470.542847 
	C1670.398071,1470.471191 1611.398315,1470.983887 1552.418823,1470.121338 
	C1499.854858,1469.352661 1453.104980,1425.965454 1450.102539,1373.506348 
	C1447.841187,1333.994995 1447.790894,1294.161377 1449.955078,1254.646362 
	C1452.241333,1212.902222 1475.564453,1183.513672 1512.853027,1165.292725 
	C1527.141113,1158.311279 1542.452393,1155.622437 1558.375732,1155.644043 
	C1634.699707,1155.747314 1711.023926,1155.727295 1787.348145,1155.659424 
	C1808.833496,1155.640259 1821.832031,1143.404053 1821.855713,1122.853271 
	C1821.953857,1037.530396 1822.398071,952.202576 1821.631470,866.886353 
	C1821.270142,826.668152 1803.336548,794.468323 1770.505249,771.053894 
	C1748.902832,755.647644 1724.554199,749.539185 1698.044800,749.549072 
	C1284.094482,749.704224 870.144226,749.657593 456.193970,749.657959 
	C453.860901,749.657959 451.524780,749.586426 449.195251,749.678650 
	C404.744629,751.438843 371.018860,771.588562 348.126862,809.512878 
	C336.497375,828.779053 331.966949,850.072998 331.973206,872.571167 
	C332.054596,1166.202637 332.026001,1459.833984 332.028076,1753.465454 
	C332.028107,1755.798340 331.973267,1758.136597 332.104736,1760.463257 
	C334.629883,1805.154175 355.096802,1839.045654 393.769440,1861.558716 
	C413.569031,1873.084961 435.300018,1876.559570 458.125519,1876.547607 
	C806.416992,1876.365356 1154.708496,1876.421387 1505.000000,1876.421631 
M1194.999756,722.629456 
	C1335.940308,722.518311 1476.880981,722.407410 1617.821533,722.281128 
	C1618.116089,722.280884 1618.454834,722.109619 1618.692627,721.918396 
	C1618.943237,721.716675 1619.097412,721.395081 1619.295654,721.126343 
	C1619.458374,720.503784 1619.762939,719.881348 1619.763550,719.258667 
	C1619.804810,668.609985 1619.938110,617.960876 1619.746704,567.312988 
	C1619.707275,556.884644 1616.750366,546.933105 1611.547363,537.778137 
	C1597.719849,513.448120 1570.140137,501.078339 1542.495483,507.432617 
	C1515.260132,513.692871 1488.155029,520.521545 1461.003906,527.146423 
	C1312.309937,563.427551 1163.620728,599.728333 1014.927307,636.011292 
	C900.173889,664.012451 785.416199,691.995850 670.667480,720.016174 
	C669.717529,720.248169 668.865906,720.882568 667.968384,721.329102 
	C668.071716,721.762573 668.175049,722.195984 668.278320,722.629456 
	C843.185425,722.629456 1018.092468,722.629456 1194.999756,722.629456 
M819.943481,652.866577 
	C893.693237,634.900696 967.447327,616.952576 1041.191772,598.964905 
	C1162.799805,569.302368 1284.402588,539.618286 1405.998779,509.907440 
	C1408.483398,509.300354 1410.861450,508.256836 1413.683350,507.280548 
	C1409.681641,490.854797 1405.836060,475.035461 1401.973022,459.220398 
	C1395.257812,431.728424 1388.848389,404.156891 1381.731079,376.769318 
	C1372.632935,341.759033 1339.344482,321.641968 1304.990845,330.360840 
	C1297.666504,332.219757 1290.640625,335.695679 1283.852539,339.161713 
	C1142.935547,411.114380 1002.077881,483.183044 861.197754,555.207886 
	C757.393677,608.277649 653.572388,661.313782 549.773254,714.393372 
	C547.239441,715.689087 544.877808,717.321472 542.435852,718.796814 
	C545.155151,719.603882 547.409302,719.389221 549.587708,718.861633 
	C574.176025,712.906555 598.752930,706.904236 623.332520,700.913208 
	C688.344849,685.067322 753.357056,669.220581 819.943481,652.866577 
M1820.875732,1185.418213 
	C1736.266724,1185.417603 1651.657837,1185.414673 1567.048828,1185.422119 
	C1562.386108,1185.422485 1557.715576,1185.350220 1553.061768,1185.578491 
	C1512.384766,1187.573975 1479.070557,1221.804932 1478.621582,1262.644653 
	C1478.251709,1296.284180 1478.207153,1329.936035 1478.674683,1363.573120 
	C1478.953003,1383.601074 1486.380249,1401.066406 1500.248413,1415.834961 
	C1517.369873,1434.067993 1538.764893,1441.147583 1563.135498,1441.143799 
	C1649.076904,1441.130493 1735.018311,1441.191162 1820.959473,1441.038940 
	C1827.549194,1441.027344 1834.366821,1440.400513 1840.682861,1438.640259 
	C1862.170044,1432.652466 1875.333374,1413.921265 1875.405762,1389.443970 
	C1875.556274,1338.479248 1875.604492,1287.512695 1875.272827,1236.549561 
	C1875.226318,1229.385498 1874.063110,1221.693970 1871.251831,1215.181274 
	C1862.219360,1194.257812 1845.555054,1184.628052 1820.875732,1185.418213 
z"/>
<path fill="#446063" opacity="1.000000" stroke="none" 
	d="
M1504.000000,1876.421753 
	C1154.708496,1876.421387 806.416992,1876.365356 458.125519,1876.547607 
	C435.300018,1876.559570 413.569031,1873.084961 393.769440,1861.558716 
	C355.096802,1839.045654 334.629883,1805.154175 332.104736,1760.463257 
	C331.973267,1758.136597 332.028107,1755.798340 332.028076,1753.465454 
	C332.026001,1459.833984 332.054596,1166.202637 331.973206,872.571167 
	C331.966949,850.072998 336.497375,828.779053 348.126862,809.512878 
	C371.018860,771.588562 404.744629,751.438843 449.195251,749.678650 
	C451.524780,749.586426 453.860901,749.657959 456.193970,749.657959 
	C870.144226,749.657593 1284.094482,749.704224 1698.044800,749.549072 
	C1724.554199,749.539185 1748.902832,755.647644 1770.505249,771.053894 
	C1803.336548,794.468323 1821.270142,826.668152 1821.631470,866.886353 
	C1822.398071,952.202576 1821.953857,1037.530396 1821.855713,1122.853271 
	C1821.832031,1143.404053 1808.833496,1155.640259 1787.348145,1155.659424 
	C1711.023926,1155.727295 1634.699707,1155.747314 1558.375732,1155.644043 
	C1542.452393,1155.622437 1527.141113,1158.311279 1512.853027,1165.292725 
	C1475.564453,1183.513672 1452.241333,1212.902222 1449.955078,1254.646362 
	C1447.790894,1294.161377 1447.841187,1333.994995 1450.102539,1373.506348 
	C1453.104980,1425.965454 1499.854858,1469.352661 1552.418823,1470.121338 
	C1611.398315,1470.983887 1670.398071,1470.471191 1729.388916,1470.542847 
	C1749.053223,1470.566772 1768.718262,1470.446045 1788.381714,1470.576050 
	C1809.479492,1470.715576 1821.857544,1483.107544 1821.875122,1504.328491 
	C1821.945068,1588.651611 1822.129272,1672.975708 1821.812500,1757.297729 
	C1821.587524,1817.166992 1777.947998,1867.018921 1718.926514,1875.475586 
	C1711.712158,1876.509155 1704.296997,1876.375488 1696.974609,1876.382812 
	C1632.983032,1876.447510 1568.991577,1876.421143 1504.000000,1876.421753 
z"/>
<path fill="#151F1E" opacity="1.000000" stroke="none" 
	d="
M1193.999634,722.629456 
	C1018.092468,722.629456 843.185425,722.629456 668.278320,722.629456 
	C668.175049,722.195984 668.071716,721.762573 667.968384,721.329102 
	C668.865906,720.882568 669.717529,720.248169 670.667480,720.016174 
	C785.416199,691.995850 900.173889,664.012451 1014.927307,636.011292 
	C1163.620728,599.728333 1312.309937,563.427551 1461.003906,527.146423 
	C1488.155029,520.521545 1515.260132,513.692871 1542.495483,507.432617 
	C1570.140137,501.078339 1597.719849,513.448120 1611.547363,537.778137 
	C1616.750366,546.933105 1619.707275,556.884644 1619.746704,567.312988 
	C1619.938110,617.960876 1619.804810,668.609985 1619.763550,719.258667 
	C1619.762939,719.881348 1619.458374,720.503784 1619.294678,721.126099 
	C1619.097412,721.395081 1618.943237,721.716675 1618.692627,721.918396 
	C1618.454834,722.109619 1618.116089,722.280884 1617.821533,722.281128 
	C1476.880981,722.407410 1335.940308,722.518311 1193.999634,722.629456 
z"/>
<path fill="#456164" opacity="1.000000" stroke="none" 
	d="
M819.156372,653.120361 
	C753.357056,669.220581 688.344849,685.067322 623.332520,700.913208 
	C598.752930,706.904236 574.176025,712.906555 549.587708,718.861633 
	C547.409302,719.389221 545.155151,719.603882 542.435852,718.796814 
	C544.877808,717.321472 547.239441,715.689087 549.773254,714.393372 
	C653.572388,661.313782 757.393677,608.277649 861.197754,555.207886 
	C1002.077881,483.183044 1142.935547,411.114380 1283.852539,339.161713 
	C1290.640625,335.695679 1297.666504,332.219757 1304.990845,330.360840 
	C1339.344482,321.641968 1372.632935,341.759033 1381.731079,376.769318 
	C1388.848389,404.156891 1395.257812,431.728424 1401.973022,459.220398 
	C1405.836060,475.035461 1409.681641,490.854797 1413.683350,507.280548 
	C1410.861450,508.256836 1408.483398,509.300354 1405.998779,509.907440 
	C1284.402588,539.618286 1162.799805,569.302368 1041.191772,598.964905 
	C967.447327,616.952576 893.693237,634.900696 819.156372,653.120361 
z"/>
<path fill="#456164" opacity="1.000000" stroke="none" 
	d="
M1821.850586,1185.419922 
	C1845.555054,1184.628052 1862.219360,1194.257812 1871.251831,1215.181274 
	C1874.063110,1221.693970 1875.226318,1229.385498 1875.272827,1236.549561 
	C1875.604492,1287.512695 1875.556274,1338.479248 1875.405762,1389.443970 
	C1875.333374,1413.921265 1862.170044,1432.652466 1840.682861,1438.640259 
	C1834.366821,1440.400513 1827.549194,1441.027344 1820.959473,1441.038940 
	C1735.018311,1441.191162 1649.076904,1441.130493 1563.135498,1441.143799 
	C1538.764893,1441.147583 1517.369873,1434.067993 1500.248413,1415.834961 
	C1486.380249,1401.066406 1478.953003,1383.601074 1478.674683,1363.573120 
	C1478.207153,1329.936035 1478.251709,1296.284180 1478.621582,1262.644653 
	C1479.070557,1221.804932 1512.384766,1187.573975 1553.061768,1185.578491 
	C1557.715576,1185.350220 1562.386108,1185.422485 1567.048828,1185.422119 
	C1651.657837,1185.414673 1736.266724,1185.417603 1821.850586,1185.419922 
M1642.199097,1330.774780 
	C1655.969238,1298.950073 1629.267578,1263.986206 1596.211426,1265.646606 
	C1572.003418,1266.862671 1551.015991,1287.781250 1550.476318,1312.499390 
	C1549.945923,1336.794189 1570.767822,1359.161865 1595.103638,1360.239746 
	C1616.759399,1361.198853 1631.903809,1351.113159 1642.199097,1330.774780 
z"/>
<path fill="#FCFDFD" opacity="1.000000" stroke="none" 
	d="
M1641.954834,1331.509033 
	C1631.903809,1351.113159 1616.759399,1361.198853 1595.103638,1360.239746 
	C1570.767822,1359.161865 1549.945923,1336.794189 1550.476318,1312.499390 
	C1551.015991,1287.781250 1572.003418,1266.862671 1596.211426,1265.646606 
	C1629.267578,1263.986206 1655.969238,1298.950073 1641.954834,1331.509033 
z"/>
</svg>