<svg version="1.1" id="Layer_1" xmlns="http://www.w3.org/2000/svg" xmlns:xlink="http://www.w3.org/1999/xlink" x="0px" y="0px"
	 width="100%" viewBox="0 0 2200 2200" enable-background="new 0 0 2200 2200" xml:space="preserve">
<path fill="#FFFFFF" opacity="1.000000" stroke="none" 
	d="
M1518.000000,2202.000000 
	C1012.057251,2202.000000 507.114441,2202.000000 2.085831,2202.000000 
	C2.085831,1468.807007 2.085831,735.613953 2.085831,2.210471 
	C735.109863,2.210471 1468.219849,2.210471 2201.665039,2.210471 
	C2201.665039,735.333191 2201.665039,1468.666626 2201.665039,2202.000000 
	C1974.279785,2202.000000 1746.639893,2202.000000 1518.000000,2202.000000 
M331.823669,1375.000000 
	C331.823669,1489.313232 331.821991,1603.626465 331.825867,1717.939697 
	C331.826324,1731.937378 331.339233,1745.958252 331.967377,1759.928467 
	C334.055115,1806.360962 355.810638,1840.848633 396.380859,1863.324829 
	C416.171692,1874.289185 437.773224,1876.828857 460.127014,1876.821411 
	C871.394653,1876.683960 1282.662354,1876.721802 1693.930054,1876.710205 
	C1698.927612,1876.710083 1703.924927,1876.543823 1708.922607,1876.462646 
	C1721.396606,1876.260620 1733.365845,1873.477783 1744.941040,1869.044434 
	C1790.992432,1851.406860 1821.465454,1808.179810 1821.997437,1758.797485 
	C1822.431763,1718.475220 1822.115356,1678.144775 1822.120972,1637.817871 
	C1822.127075,1593.491577 1822.068481,1549.165283 1822.167725,1504.839233 
	C1822.185303,1496.962158 1821.025269,1489.543213 1816.199463,1483.117676 
	C1809.252319,1473.867432 1799.812622,1470.242065 1788.370972,1470.260010 
	C1715.049561,1470.375000 1641.727905,1470.323364 1568.406250,1470.306763 
	C1562.408691,1470.305420 1556.400879,1470.353638 1550.415039,1470.045410 
	C1496.801514,1467.285034 1451.206055,1421.716431 1449.762085,1368.091919 
	C1448.775757,1331.459717 1449.429199,1294.778442 1449.634155,1258.120850 
	C1449.727539,1241.446899 1454.549927,1225.815918 1462.994507,1211.569824 
	C1484.400513,1175.457520 1516.166748,1156.140991 1558.316772,1155.912598 
	C1633.635864,1155.504272 1708.958862,1155.791382 1784.280151,1155.785034 
	C1787.279419,1155.784790 1790.291748,1155.929199 1793.275757,1155.706787 
	C1808.683838,1154.557617 1820.659424,1142.721191 1821.935181,1127.359009 
	C1822.210205,1124.046021 1822.114990,1120.698608 1822.115601,1117.367065 
	C1822.125244,1066.041870 1822.125732,1014.716736 1822.121460,963.391602 
	C1822.118774,931.730042 1822.332031,900.066284 1822.033691,868.407471 
	C1821.713257,834.399475 1809.195557,805.320862 1784.479370,781.990295 
	C1760.897095,759.730042 1732.623657,749.413940 1700.022827,749.425476 
	C1284.755737,749.572754 869.488708,749.522522 454.221649,749.522888 
	C452.221985,749.522888 450.221130,749.484619 448.222839,749.538879 
	C412.515533,750.508972 383.098785,764.935852 360.058655,791.909851 
	C340.446411,814.870728 331.744598,841.883667 331.767303,872.080017 
	C331.892822,1039.053345 331.825134,1206.026611 331.823669,1375.000000 
M1284.457275,569.758057 
	C1268.279785,573.661194 1252.094482,577.532715 1235.925903,581.472595 
	C1127.943115,607.785278 1019.957703,634.087463 911.985352,660.443237 
	C831.160889,680.172302 750.354004,699.973694 669.546021,719.770203 
	C667.966492,720.157104 666.469543,720.881165 664.934082,721.447998 
	C665.082886,721.813965 665.231750,722.179932 665.380615,722.545898 
	C983.453491,722.545898 1301.526367,722.545898 1619.589844,722.545898 
	C1619.840576,720.992188 1620.136353,720.013367 1620.136597,719.034424 
	C1620.151855,668.374512 1620.604736,617.708984 1619.989258,567.056458 
	C1619.490967,526.064514 1581.442505,497.346283 1541.119995,507.092682 
	C1456.055908,527.653503 1371.080933,548.581848 1284.457275,569.758057 
M1207.902466,558.722412 
	C1209.208496,558.465515 1210.526978,558.259521 1211.818726,557.944336 
	C1277.740479,541.860474 1343.661377,525.773071 1409.570679,509.638611 
	C1411.074219,509.270569 1412.444214,508.357300 1414.144043,507.575317 
	C1413.372437,504.161774 1412.765869,501.278259 1412.067017,498.417297 
	C1402.122192,457.704773 1392.183105,416.990814 1382.201660,376.287292 
	C1378.219727,360.049957 1369.460693,346.932312 1355.245239,338.110870 
	C1334.387695,325.167633 1312.550781,324.027832 1290.581909,335.162750 
	C1241.885376,359.844543 1193.316040,384.777802 1144.701904,409.622253 
	C1087.790161,438.707245 1030.887695,467.810486 973.977905,496.899200 
	C882.090393,543.866394 790.205566,590.838928 698.308777,637.788086 
	C647.319580,663.837952 596.304260,689.836731 545.320557,715.897339 
	C542.971680,717.097961 540.817688,718.679871 538.572998,720.084167 
	C541.320740,721.273987 543.244263,720.965698 545.131287,720.507019 
	C615.592468,703.378540 686.058594,686.270142 756.506409,669.086853 
	C838.912537,648.986938 921.298950,628.806274 1003.700256,608.686646 
	C1071.242310,592.195068 1138.793823,575.741577 1207.902466,558.722412 
M1599.000122,1185.365112 
	C1585.003784,1185.378052 1571.005371,1185.235474 1557.011597,1185.432861 
	C1513.516357,1186.046265 1479.005615,1220.136597 1478.433960,1263.598999 
	C1478.000000,1296.584595 1477.744751,1329.594604 1478.521240,1362.567505 
	C1479.244751,1393.296387 1493.789429,1416.503418 1520.624512,1431.664307 
	C1534.376343,1439.433594 1549.527344,1441.163452 1565.046509,1441.154175 
	C1649.357422,1441.103394 1733.668457,1441.133057 1817.979370,1441.118652 
	C1821.308472,1441.118042 1824.636963,1440.917847 1827.966675,1440.866089 
	C1852.778198,1440.481079 1875.203857,1421.100464 1875.388062,1391.522339 
	C1875.713867,1339.204956 1875.600708,1286.883667 1875.401978,1234.564941 
	C1875.346436,1219.951416 1870.089233,1207.241089 1858.929199,1197.330322 
	C1848.931030,1188.451294 1837.175049,1185.263550 1823.940918,1185.293335 
	C1749.627808,1185.461060 1675.313843,1185.368652 1599.000122,1185.365112 
z"/>
<path fill="#446063" opacity="1.000000" stroke="none" 
	d="
M331.823639,1374.000000 
	C331.825134,1206.026611 331.892822,1039.053345 331.767303,872.080017 
	C331.744598,841.883667 340.446411,814.870728 360.058655,791.909851 
	C383.098785,764.935852 412.515533,750.508972 448.222839,749.538879 
	C450.221130,749.484619 452.221985,749.522888 454.221649,749.522888 
	C869.488708,749.522522 1284.755737,749.572754 1700.022827,749.425476 
	C1732.623657,749.413940 1760.897095,759.730042 1784.479370,781.990295 
	C1809.195557,805.320862 1821.713257,834.399475 1822.033691,868.407471 
	C1822.332031,900.066284 1822.118774,931.730042 1822.121460,963.391602 
	C1822.125732,1014.716736 1822.125244,1066.041870 1822.115601,1117.367065 
	C1822.114990,1120.698608 1822.210205,1124.046021 1821.935181,1127.359009 
	C1820.659424,1142.721191 1808.683838,1154.557617 1793.275757,1155.706787 
	C1790.291748,1155.929199 1787.279419,1155.784790 1784.280151,1155.785034 
	C1708.958862,1155.791382 1633.635864,1155.504272 1558.316772,1155.912598 
	C1516.166748,1156.140991 1484.400513,1175.457520 1462.994507,1211.569824 
	C1454.549927,1225.815918 1449.727539,1241.446899 1449.634155,1258.120850 
	C1449.429199,1294.778442 1448.775757,1331.459717 1449.762085,1368.091919 
	C1451.206055,1421.716431 1496.801514,1467.285034 1550.415039,1470.045410 
	C1556.400879,1470.353638 1562.408691,1470.305420 1568.406250,1470.306763 
	C1641.727905,1470.323364 1715.049561,1470.375000 1788.370972,1470.260010 
	C1799.812622,1470.242065 1809.252319,1473.867432 1816.199463,1483.117676 
	C1821.025269,1489.543213 1822.185303,1496.962158 1822.167725,1504.839233 
	C1822.068481,1549.165283 1822.127075,1593.491577 1822.120972,1637.817871 
	C1822.115356,1678.144775 1822.431763,1718.475220 1821.997437,1758.797485 
	C1821.465454,1808.179810 1790.992432,1851.406860 1744.941040,1869.044434 
	C1733.365845,1873.477783 1721.396606,1876.260620 1708.922607,1876.462646 
	C1703.924927,1876.543823 1698.927612,1876.710083 1693.930054,1876.710205 
	C1282.662354,1876.721802 871.394653,1876.683960 460.127014,1876.821411 
	C437.773224,1876.828857 416.171692,1874.289185 396.380859,1863.324829 
	C355.810638,1840.848633 334.055115,1806.360962 331.967377,1759.928467 
	C331.339233,1745.958252 331.826324,1731.937378 331.825867,1717.939697 
	C331.821991,1603.626465 331.823669,1489.313232 331.823639,1374.000000 
M696.439941,1235.616089 
	C696.885681,1234.360962 697.394104,1233.124268 697.768188,1231.848145 
	C711.043823,1186.555298 724.284851,1141.252197 737.588989,1095.967773 
	C740.458435,1086.200806 743.548462,1076.498779 746.613770,1066.516357 
	C735.758728,1066.516357 725.558594,1066.516357 715.147888,1066.516357 
	C713.681030,1074.125977 712.707764,1081.341797 710.871826,1088.330811 
	C702.094360,1121.744141 692.987488,1155.070679 684.183655,1188.477051 
	C676.565552,1217.384155 669.212280,1246.360840 661.697388,1275.295288 
	C660.835571,1278.613403 659.687195,1281.857178 658.235168,1286.544434 
	C635.876892,1212.154907 614.038025,1139.493652 592.134949,1066.618896 
	C584.483643,1066.618896 576.652161,1066.618896 569.126465,1066.618896 
	C564.786255,1082.014282 560.745300,1096.736450 556.473572,1111.391235 
	C552.194397,1126.071777 547.706116,1140.691650 543.270264,1155.326172 
	C538.931274,1169.641357 534.530029,1183.937500 530.179810,1198.249268 
	C525.732422,1212.880859 521.226501,1227.495483 516.907654,1242.165039 
	C512.694397,1256.475830 508.685364,1270.846680 504.586639,1285.191040 
	C500.205933,1273.933228 497.708130,1262.962402 494.899078,1252.072021 
	C478.988190,1190.387451 459.770294,1129.566528 446.138092,1066.612305 
	C436.259491,1066.612305 425.899475,1066.612305 416.116150,1066.612305 
	C441.283325,1153.119385 466.316284,1239.165161 491.556366,1325.922729 
	C497.706177,1325.922729 503.662933,1325.727417 509.600555,1325.981201 
	C514.873291,1326.206543 516.829224,1323.971680 518.317688,1318.827637 
	C529.588684,1279.875000 541.406189,1241.081177 552.875610,1202.185303 
	C561.428101,1173.181519 569.698914,1144.094727 578.158569,1115.063354 
	C578.723816,1113.123657 579.825806,1111.340332 581.278076,1108.177734 
	C584.514771,1120.293701 587.083496,1130.934814 590.208069,1141.410156 
	C598.949768,1170.717041 607.959045,1199.943970 616.791504,1229.223999 
	C625.911194,1259.456177 634.992371,1289.700439 643.951660,1319.980347 
	C644.883606,1323.130371 645.808655,1325.777100 649.563904,1325.815796 
	C656.757751,1325.889893 663.952942,1325.837280 670.647034,1325.837280 
	C679.410461,1295.319336 687.755432,1266.258667 696.439941,1235.616089 
M656.805420,1631.897461 
	C656.539001,1629.260010 656.043396,1626.623047 656.039490,1623.985229 
	C655.927551,1548.031738 655.855591,1472.078125 655.835022,1396.124634 
	C655.834351,1393.595459 656.436035,1391.066162 656.777771,1388.372559 
	C690.653137,1388.372559 723.794922,1388.372559 757.252808,1388.372559 
	C757.252808,1378.561768 757.252808,1368.791504 757.252808,1358.552124 
	C752.557556,1359.085205 748.651428,1359.932373 744.749939,1359.911499 
	C673.187195,1359.527710 601.624817,1359.052856 530.062927,1358.532349 
	C526.876282,1358.509033 524.570801,1359.619995 524.475525,1362.770874 
	C524.228088,1370.951416 524.392456,1379.144531 524.392456,1387.732666 
	C536.770081,1387.732666 547.708679,1387.733887 558.647339,1387.732300 
	C569.973877,1387.730713 581.300842,1387.659302 592.626770,1387.742798 
	C603.485046,1387.822754 614.376709,1387.356812 626.208313,1388.141479 
	C626.208313,1431.870117 626.330139,1474.435425 626.174133,1516.999634 
	C626.017517,1559.732300 626.990051,1602.468994 625.322327,1645.220947 
	C636.220886,1645.220947 646.692078,1645.220947 657.936951,1645.220947 
	C657.725891,1640.826172 657.553162,1637.230225 656.805420,1631.897461 
M1422.935425,1598.171753 
	C1419.045288,1592.724731 1415.155029,1587.277832 1411.066895,1581.553711 
	C1413.263428,1580.670654 1415.470825,1579.972778 1417.505127,1578.935425 
	C1431.406616,1571.845947 1435.829956,1561.746094 1435.091797,1547.050659 
	C1434.334473,1531.977783 1426.518311,1523.025513 1412.019897,1519.458984 
	C1406.919556,1518.204224 1401.500244,1517.892578 1396.215942,1517.807007 
	C1381.893311,1517.575317 1367.564819,1517.662231 1353.239014,1517.704346 
	C1350.354858,1517.712891 1347.471680,1518.080933 1344.657959,1518.278198 
	C1344.657959,1560.394287 1344.657959,1601.797607 1344.657959,1642.941895 
	C1349.510986,1642.941895 1353.619751,1642.941895 1357.893555,1642.941895 
	C1357.787964,1623.623047 1357.353760,1605.139771 1357.979858,1586.136108 
	C1368.706177,1586.136108 1378.000000,1586.243652 1387.290161,1586.105591 
	C1396.462402,1585.969238 1403.517822,1589.811401 1408.109131,1597.532349 
	C1411.837402,1603.802124 1415.164795,1610.366333 1418.050659,1617.066895 
	C1421.715454,1625.575928 1424.754761,1634.354492 1428.193237,1643.355957 
	C1433.187500,1643.355957 1438.052124,1643.355957 1444.366821,1643.355957 
	C1437.201782,1628.155029 1430.434814,1613.798218 1422.935425,1598.171753 
M1053.807007,1278.999023 
	C1053.807007,1294.179443 1053.807007,1309.359863 1053.807007,1325.013184 
	C1082.064453,1325.013184 1110.515869,1325.013184 1139.167236,1325.013184 
	C1139.167236,1320.540161 1139.167236,1316.717163 1139.167236,1312.358643 
	C1115.155396,1312.139038 1091.702637,1313.075928 1068.280762,1312.036133 
	C1068.280762,1295.389282 1068.280762,1279.926758 1068.280762,1263.662109 
	C1089.147217,1263.662109 1109.305542,1263.662109 1129.779053,1263.662109 
	C1129.779053,1259.008667 1129.779053,1255.181152 1129.779053,1250.489258 
	C1109.112549,1250.489258 1088.971191,1250.489258 1068.207031,1250.489258 
	C1068.207031,1236.178711 1068.207031,1222.731201 1068.207031,1208.680420 
	C1091.443359,1208.680420 1114.230957,1208.680420 1137.333130,1208.680420 
	C1137.333130,1204.243408 1137.333130,1200.208496 1137.333130,1196.481689 
	C1108.677734,1196.481689 1080.848633,1196.481689 1053.806763,1196.481689 
	C1053.806763,1223.825317 1053.806763,1250.412476 1053.807007,1278.999023 
M749.938110,1573.000000 
	C749.938110,1596.246948 749.938110,1619.493774 749.938110,1643.352783 
	C752.136353,1643.484131 754.724792,1643.776733 757.309692,1643.747681 
	C759.217346,1643.726318 761.120300,1643.285645 763.048950,1643.028687 
	C763.048950,1624.048950 763.048950,1605.603516 763.048950,1586.379517 
	C775.005371,1586.379517 786.273132,1585.991455 797.495117,1586.539917 
	C803.279846,1586.822510 808.305908,1590.083374 811.673523,1594.979980 
	C814.492249,1599.078857 817.264099,1603.328491 819.236450,1607.867676 
	C824.257507,1619.423706 828.819336,1631.179199 833.942688,1643.784180 
	C836.662903,1643.784180 839.941162,1643.854858 843.214050,1643.753052 
	C844.750549,1643.705200 846.276672,1643.324951 849.412415,1642.854614 
	C838.546387,1621.795532 832.572876,1599.445923 815.906616,1582.015869 
	C818.638794,1580.802002 821.069397,1579.859375 823.375732,1578.674805 
	C836.338196,1572.016113 841.793091,1560.743530 840.057007,1544.365845 
	C838.672424,1531.303955 830.786560,1522.668701 816.618958,1519.351562 
	C812.132324,1518.301025 807.413879,1517.886719 802.793152,1517.826782 
	C787.132141,1517.623413 771.467407,1517.675537 755.804382,1517.722412 
	C753.579712,1517.729004 751.356628,1518.246582 749.938049,1518.425903 
	C749.938049,1536.394165 749.938049,1553.697021 749.938110,1573.000000 
M1257.083618,1643.930542 
	C1278.565186,1643.930542 1300.046753,1643.930542 1322.091797,1643.930542 
	C1321.842651,1639.149902 1321.661133,1635.664429 1321.466919,1631.937256 
	C1297.585449,1632.095581 1274.755737,1632.185669 1251.815186,1631.996094 
	C1251.815186,1615.334961 1251.815186,1600.140259 1251.815186,1583.909668 
	C1272.453247,1583.909668 1292.562988,1583.909668 1312.945190,1583.909668 
	C1312.945190,1579.033325 1312.945190,1575.219849 1312.945190,1571.803833 
	C1302.436279,1571.803833 1292.536865,1571.809570 1282.637451,1571.802246 
	C1272.430664,1571.794678 1262.223877,1571.774536 1251.883301,1571.759644 
	C1251.883301,1557.106201 1251.883301,1543.940308 1251.883301,1529.837891 
	C1274.940186,1529.837891 1297.392334,1529.837891 1320.028564,1529.837891 
	C1320.028564,1524.875488 1320.028564,1520.890503 1320.028564,1517.718750 
	C1311.362427,1517.718750 1303.755371,1517.724976 1296.148193,1517.717529 
	C1278.492554,1517.700195 1260.836792,1517.642212 1243.181396,1517.699829 
	C1241.052368,1517.706787 1238.925415,1518.324341 1237.326416,1518.575806 
	C1237.326416,1560.624512 1237.326416,1601.813721 1237.326416,1643.932861 
	C1243.291992,1643.932861 1249.208008,1643.932861 1257.083618,1643.930542 
M1177.132690,1538.127075 
	C1170.076538,1545.199341 1163.075439,1552.327515 1155.948608,1559.327759 
	C1149.014771,1566.138062 1142.501343,1573.438232 1133.330444,1581.261475 
	C1133.330444,1558.514038 1133.330444,1538.375610 1133.330444,1518.605225 
	C1128.392700,1518.605225 1124.283203,1518.605225 1120.451660,1518.605225 
	C1120.451660,1560.627686 1120.451660,1601.770264 1120.451660,1643.071045 
	C1125.175293,1643.071045 1129.268066,1643.071045 1133.543945,1643.071045 
	C1133.543945,1629.725342 1133.429443,1617.111084 1133.631592,1604.501953 
	C1133.677002,1601.662720 1133.947021,1598.062256 1135.633057,1596.156860 
	C1140.811523,1590.304199 1146.727173,1585.103882 1152.866699,1579.155396 
	C1168.485840,1599.501465 1183.489258,1618.593628 1197.879395,1638.137207 
	C1201.105957,1642.519409 1204.207153,1644.481812 1209.345337,1643.834106 
	C1212.115601,1643.484863 1214.913696,1643.355957 1218.972778,1643.023315 
	C1199.476562,1618.233643 1180.892090,1594.603149 1162.017578,1570.603882 
	C1179.349243,1553.120728 1195.829834,1536.496094 1213.730957,1518.438477 
	C1209.463745,1518.056152 1207.594482,1517.978149 1205.753540,1517.707642 
	C1198.916016,1516.703247 1193.793457,1518.644287 1189.717651,1524.757935 
	C1186.626709,1529.394165 1182.047974,1533.038574 1177.132690,1538.127075 
M737.890503,1262.788818 
	C729.729309,1282.900269 721.568054,1303.011597 713.187683,1323.663086 
	C719.442871,1323.663086 724.285889,1323.663086 728.419434,1323.663086 
	C733.449036,1310.543457 738.168518,1298.232666 742.790405,1286.176514 
	C763.169617,1286.176514 782.384338,1286.176514 802.392029,1286.176514 
	C807.294678,1298.825806 812.167297,1311.397583 816.842468,1323.459717 
	C822.199829,1323.459717 826.892151,1323.459717 832.063171,1323.459717 
	C814.571045,1280.474976 797.460449,1238.427734 780.419067,1196.550537 
	C774.761108,1196.550537 769.820679,1196.550537 764.715698,1196.550537 
	C755.889343,1218.302246 747.155884,1239.824951 737.890503,1262.788818 
M963.507141,1609.390381 
	C951.119568,1578.944580 938.731934,1548.498901 926.487244,1518.404297 
	C920.602234,1518.404297 915.426331,1518.404297 910.668640,1518.404297 
	C893.674194,1560.327026 876.970459,1601.532715 860.072327,1643.217773 
	C865.714478,1643.217773 870.546509,1643.217773 874.894775,1643.217773 
	C879.938171,1630.287354 884.727722,1618.007690 889.317017,1606.241455 
	C909.663452,1606.241455 928.562561,1606.241455 948.044983,1606.241455 
	C952.840576,1618.790649 957.552612,1631.121216 962.078857,1642.965576 
	C967.489868,1642.965576 972.196472,1642.965576 977.393433,1642.965576 
	C972.695312,1631.652222 968.370789,1621.238403 963.507141,1609.390381 
M1019.236511,1640.127441 
	C1030.013672,1645.486938 1041.497437,1646.640503 1053.297852,1645.774292 
	C1076.139404,1644.097656 1093.365479,1629.076172 1097.141846,1606.940674 
	C1093.172852,1606.027832 1089.171143,1605.107422 1085.135986,1604.179321 
	C1083.918823,1607.372925 1083.075562,1609.518433 1082.281006,1611.682007 
	C1077.243774,1625.396240 1066.735107,1632.161865 1052.875610,1633.905151 
	C1030.541870,1636.714355 1012.794434,1625.042236 1006.206848,1603.552856 
	C1002.123230,1590.231689 1001.830872,1576.601807 1004.675720,1563.076782 
	C1008.786499,1543.533691 1021.751831,1530.192261 1038.336304,1527.843018 
	C1057.459961,1525.133911 1074.150513,1530.168823 1082.889526,1551.230225 
	C1083.000122,1551.497192 1083.398560,1551.644653 1084.629028,1552.591553 
	C1087.831665,1551.702026 1091.736450,1550.617310 1096.437622,1549.311523 
	C1094.129517,1544.635254 1092.536255,1540.997925 1090.572510,1537.572876 
	C1089.260742,1535.285156 1087.465698,1533.264526 1085.811768,1531.184204 
	C1068.669922,1509.622681 1017.582214,1507.532471 999.517761,1540.929321 
	C988.973267,1560.423462 987.403625,1580.818848 991.997375,1601.942627 
	C995.459106,1617.860962 1003.457397,1630.965454 1019.236511,1640.127441 
M1160.044189,1208.251221 
	C1171.891357,1208.067261 1183.741577,1207.804932 1196.259277,1208.365112 
	C1196.259277,1247.845703 1196.259277,1285.995483 1196.259277,1324.436646 
	C1201.183472,1324.436646 1205.338379,1324.436646 1209.775513,1324.436646 
	C1209.775513,1314.164062 1209.775391,1304.550659 1209.775391,1294.937256 
	C1209.775391,1285.275757 1209.775391,1275.614380 1209.775391,1265.952881 
	C1209.775391,1256.291504 1209.702148,1246.629272 1209.796143,1236.968872 
	C1209.888428,1227.480713 1209.354492,1217.944580 1210.195190,1208.335938 
	C1226.045166,1208.335938 1240.550415,1208.335938 1255.085693,1208.335938 
	C1255.085693,1204.030396 1255.085693,1200.228394 1255.085693,1196.350220 
	C1219.949341,1196.350220 1185.500244,1196.350220 1150.844238,1196.350220 
	C1150.844238,1200.800903 1150.844238,1204.614990 1150.844238,1208.831177 
	C1153.755615,1208.623169 1156.026489,1208.460938 1160.044189,1208.251221 
M951.964539,1275.000000 
	C951.964539,1291.517700 951.964539,1308.035400 951.964539,1325.054810 
	C980.308594,1325.054810 1008.760620,1325.054810 1037.227783,1325.054810 
	C1037.227783,1320.397339 1037.227783,1316.346313 1037.227783,1311.748047 
	C1013.158081,1311.748047 989.968506,1311.748047 965.869019,1311.748047 
	C965.869019,1273.106201 965.869019,1235.020874 965.869019,1196.648071 
	C960.457703,1196.648071 955.990112,1196.648071 951.964539,1196.648071 
	C951.964539,1222.507080 951.964539,1247.753540 951.964539,1275.000000 
M906.991272,1312.344360 
	C892.823181,1312.288086 878.655029,1312.231689 863.576538,1312.171753 
	C863.576538,1272.769897 863.576538,1234.707886 863.576538,1196.926514 
	C858.475769,1196.926514 854.355774,1196.926514 850.212646,1196.926514 
	C850.212646,1239.909424 850.212646,1282.063232 850.212646,1324.923828 
	C878.808350,1324.923828 906.933105,1324.923828 935.532959,1324.923828 
	C935.532959,1320.665894 935.532959,1316.623413 935.532959,1312.344482 
	C926.190125,1312.344482 917.587524,1312.344482 906.991272,1312.344360 
z"/>
<path fill="#17201F" opacity="1.000000" stroke="none" 
	d="
M1285.263306,569.558716 
	C1371.080933,548.581848 1456.055908,527.653503 1541.119995,507.092682 
	C1581.442505,497.346283 1619.490967,526.064514 1619.989258,567.056458 
	C1620.604736,617.708984 1620.151855,668.374512 1620.136597,719.034424 
	C1620.136353,720.013367 1619.840576,720.992188 1619.589844,722.545898 
	C1301.526367,722.545898 983.453491,722.545898 665.380615,722.545898 
	C665.231750,722.179932 665.082886,721.813965 664.934082,721.447998 
	C666.469543,720.881165 667.966492,720.157104 669.546021,719.770203 
	C750.354004,699.973694 831.160889,680.172302 911.985352,660.443237 
	C1019.957703,634.087463 1127.943115,607.785278 1235.925903,581.472595 
	C1252.094482,577.532715 1268.279785,573.661194 1285.263306,569.558716 
z"/>
<path fill="#456164" opacity="1.000000" stroke="none" 
	d="
M1207.121826,558.996826 
	C1138.793823,575.741577 1071.242310,592.195068 1003.700256,608.686646 
	C921.298950,628.806274 838.912537,648.986938 756.506409,669.086853 
	C686.058594,686.270142 615.592468,703.378540 545.131287,720.507019 
	C543.244263,720.965698 541.320740,721.273987 538.572998,720.084167 
	C540.817688,718.679871 542.971680,717.097961 545.320557,715.897339 
	C596.304260,689.836731 647.319580,663.837952 698.308777,637.788086 
	C790.205566,590.838928 882.090393,543.866394 973.977905,496.899200 
	C1030.887695,467.810486 1087.790161,438.707245 1144.701904,409.622253 
	C1193.316040,384.777802 1241.885376,359.844543 1290.581909,335.162750 
	C1312.550781,324.027832 1334.387695,325.167633 1355.245239,338.110870 
	C1369.460693,346.932312 1378.219727,360.049957 1382.201660,376.287292 
	C1392.183105,416.990814 1402.122192,457.704773 1412.067017,498.417297 
	C1412.765869,501.278259 1413.372437,504.161774 1414.144043,507.575317 
	C1412.444214,508.357300 1411.074219,509.270569 1409.570679,509.638611 
	C1343.661377,525.773071 1277.740479,541.860474 1211.818726,557.944336 
	C1210.526978,558.259521 1209.208496,558.465515 1207.121826,558.996826 
z"/>
<path fill="#456164" opacity="1.000000" stroke="none" 
	d="
M1600.000244,1185.364990 
	C1675.313843,1185.368652 1749.627808,1185.461060 1823.940918,1185.293335 
	C1837.175049,1185.263550 1848.931030,1188.451294 1858.929199,1197.330322 
	C1870.089233,1207.241089 1875.346436,1219.951416 1875.401978,1234.564941 
	C1875.600708,1286.883667 1875.713867,1339.204956 1875.388062,1391.522339 
	C1875.203857,1421.100464 1852.778198,1440.481079 1827.966675,1440.866089 
	C1824.636963,1440.917847 1821.308472,1441.118042 1817.979370,1441.118652 
	C1733.668457,1441.133057 1649.357422,1441.103394 1565.046509,1441.154175 
	C1549.527344,1441.163452 1534.376343,1439.433594 1520.624512,1431.664307 
	C1493.789429,1416.503418 1479.244751,1393.296387 1478.521240,1362.567505 
	C1477.744751,1329.594604 1478.000000,1296.584595 1478.433960,1263.598999 
	C1479.005615,1220.136597 1513.516357,1186.046265 1557.011597,1185.432861 
	C1571.005371,1185.235474 1585.003784,1185.378052 1600.000244,1185.364990 
M1637.526978,1340.286865 
	C1638.999023,1337.682251 1640.687744,1335.175049 1641.909058,1332.457642 
	C1652.351562,1309.222656 1642.519043,1281.850952 1619.663940,1270.317505 
	C1597.379517,1259.072144 1569.902710,1267.280884 1557.071289,1289.017456 
	C1544.319824,1310.618774 1550.783081,1338.364380 1571.560303,1352.616333 
	C1589.778564,1365.112915 1619.706299,1364.198975 1637.526978,1340.286865 
z"/>
<path fill="#15201F" opacity="1.000000" stroke="none" 
	d="
M696.270142,1236.407104 
	C687.755432,1266.258667 679.410461,1295.319336 670.647034,1325.837280 
	C663.952942,1325.837280 656.757751,1325.889893 649.563904,1325.815796 
	C645.808655,1325.777100 644.883606,1323.130371 643.951660,1319.980347 
	C634.992371,1289.700439 625.911194,1259.456177 616.791504,1229.223999 
	C607.959045,1199.943970 598.949768,1170.717041 590.208069,1141.410156 
	C587.083496,1130.934814 584.514771,1120.293701 581.278076,1108.177734 
	C579.825806,1111.340332 578.723816,1113.123657 578.158569,1115.063354 
	C569.698914,1144.094727 561.428101,1173.181519 552.875610,1202.185303 
	C541.406189,1241.081177 529.588684,1279.875000 518.317688,1318.827637 
	C516.829224,1323.971680 514.873291,1326.206543 509.600555,1325.981201 
	C503.662933,1325.727417 497.706177,1325.922729 491.556366,1325.922729 
	C466.316284,1239.165161 441.283325,1153.119385 416.116150,1066.612305 
	C425.899475,1066.612305 436.259491,1066.612305 446.138092,1066.612305 
	C459.770294,1129.566528 478.988190,1190.387451 494.899078,1252.072021 
	C497.708130,1262.962402 500.205933,1273.933228 504.586639,1285.191040 
	C508.685364,1270.846680 512.694397,1256.475830 516.907654,1242.165039 
	C521.226501,1227.495483 525.732422,1212.880859 530.179810,1198.249268 
	C534.530029,1183.937500 538.931274,1169.641357 543.270264,1155.326172 
	C547.706116,1140.691650 552.194397,1126.071777 556.473572,1111.391235 
	C560.745300,1096.736450 564.786255,1082.014282 569.126465,1066.618896 
	C576.652161,1066.618896 584.483643,1066.618896 592.134949,1066.618896 
	C614.038025,1139.493652 635.876892,1212.154907 658.235168,1286.544434 
	C659.687195,1281.857178 660.835571,1278.613403 661.697388,1275.295288 
	C669.212280,1246.360840 676.565552,1217.384155 684.183655,1188.477051 
	C692.987488,1155.070679 702.094360,1121.744141 710.871826,1088.330811 
	C712.707764,1081.341797 713.681030,1074.125977 715.147888,1066.516357 
	C725.558594,1066.516357 735.758728,1066.516357 746.613770,1066.516357 
	C743.548462,1076.498779 740.458435,1086.200806 737.588989,1095.967773 
	C724.284851,1141.252197 711.043823,1186.555298 697.768188,1231.848145 
	C697.394104,1233.124268 696.885681,1234.360962 696.270142,1236.407104 
z"/>
<path fill="#162121" opacity="1.000000" stroke="none" 
	d="
M657.092896,1632.765869 
	C657.553162,1637.230225 657.725891,1640.826172 657.936951,1645.220947 
	C646.692078,1645.220947 636.220886,1645.220947 625.322327,1645.220947 
	C626.990051,1602.468994 626.017517,1559.732300 626.174133,1516.999634 
	C626.330139,1474.435425 626.208313,1431.870117 626.208313,1388.141479 
	C614.376709,1387.356812 603.485046,1387.822754 592.626770,1387.742798 
	C581.300842,1387.659302 569.973877,1387.730713 558.647339,1387.732300 
	C547.708679,1387.733887 536.770081,1387.732666 524.392456,1387.732666 
	C524.392456,1379.144531 524.228088,1370.951416 524.475525,1362.770874 
	C524.570801,1359.619995 526.876282,1358.509033 530.062927,1358.532349 
	C601.624817,1359.052856 673.187195,1359.527710 744.749939,1359.911499 
	C748.651428,1359.932373 752.557556,1359.085205 757.252808,1358.552124 
	C757.252808,1368.791504 757.252808,1378.561768 757.252808,1388.372559 
	C723.794922,1388.372559 690.653137,1388.372559 656.777771,1388.372559 
	C656.436035,1391.066162 655.834351,1393.595459 655.835022,1396.124634 
	C655.855591,1472.078125 655.927551,1548.031738 656.039490,1623.985229 
	C656.043396,1626.623047 656.539001,1629.260010 657.092896,1632.765869 
z"/>
<path fill="#C4CED7" opacity="1.000000" stroke="none" 
	d="
M1423.301514,1598.806641 
	C1430.434814,1613.798218 1437.201782,1628.155029 1444.366821,1643.355957 
	C1438.052124,1643.355957 1433.187500,1643.355957 1428.193237,1643.355957 
	C1424.754761,1634.354492 1421.715454,1625.575928 1418.050659,1617.066895 
	C1415.164795,1610.366333 1411.837402,1603.802124 1408.109131,1597.532349 
	C1403.517822,1589.811401 1396.462402,1585.969238 1387.290161,1586.105591 
	C1378.000000,1586.243652 1368.706177,1586.136108 1357.979858,1586.136108 
	C1357.353760,1605.139771 1357.787964,1623.623047 1357.893555,1642.941895 
	C1353.619751,1642.941895 1349.510986,1642.941895 1344.657959,1642.941895 
	C1344.657959,1601.797607 1344.657959,1560.394287 1344.657959,1518.278198 
	C1347.471680,1518.080933 1350.354858,1517.712891 1353.239014,1517.704346 
	C1367.564819,1517.662231 1381.893311,1517.575317 1396.215942,1517.807007 
	C1401.500244,1517.892578 1406.919556,1518.204224 1412.019897,1519.458984 
	C1426.518311,1523.025513 1434.334473,1531.977783 1435.091797,1547.050659 
	C1435.829956,1561.746094 1431.406616,1571.845947 1417.505127,1578.935425 
	C1415.470825,1579.972778 1413.263428,1580.670654 1411.066895,1581.553711 
	C1415.155029,1587.277832 1419.045288,1592.724731 1423.301514,1598.806641 
M1357.646729,1552.992432 
	C1357.646729,1559.858887 1357.646729,1566.725342 1357.646729,1574.074341 
	C1373.602051,1574.074341 1388.215698,1574.839966 1402.706299,1573.833374 
	C1414.390259,1573.021606 1421.898193,1562.874146 1421.855103,1550.838989 
	C1421.810425,1538.348511 1415.548706,1530.858032 1402.737427,1529.814697 
	C1390.175903,1528.791748 1377.519653,1528.892212 1364.902100,1528.638428 
	C1362.710571,1528.594482 1360.505127,1529.240479 1357.646240,1529.666016 
	C1357.646240,1537.113892 1357.646240,1544.064697 1357.646729,1552.992432 
z"/>
<path fill="#C4CED7" opacity="1.000000" stroke="none" 
	d="
M1053.806885,1277.999268 
	C1053.806763,1250.412476 1053.806763,1223.825317 1053.806763,1196.481689 
	C1080.848633,1196.481689 1108.677734,1196.481689 1137.333130,1196.481689 
	C1137.333130,1200.208496 1137.333130,1204.243408 1137.333130,1208.680420 
	C1114.230957,1208.680420 1091.443359,1208.680420 1068.207031,1208.680420 
	C1068.207031,1222.731201 1068.207031,1236.178711 1068.207031,1250.489258 
	C1088.971191,1250.489258 1109.112549,1250.489258 1129.779053,1250.489258 
	C1129.779053,1255.181152 1129.779053,1259.008667 1129.779053,1263.662109 
	C1109.305542,1263.662109 1089.147217,1263.662109 1068.280762,1263.662109 
	C1068.280762,1279.926758 1068.280762,1295.389282 1068.280762,1312.036133 
	C1091.702637,1313.075928 1115.155396,1312.139038 1139.167236,1312.358643 
	C1139.167236,1316.717163 1139.167236,1320.540161 1139.167236,1325.013184 
	C1110.515869,1325.013184 1082.064453,1325.013184 1053.807007,1325.013184 
	C1053.807007,1309.359863 1053.807007,1294.179443 1053.806885,1277.999268 
z"/>
<path fill="#C6D0D9" opacity="1.000000" stroke="none" 
	d="
M749.938110,1572.000000 
	C749.938049,1553.697021 749.938049,1536.394165 749.938049,1518.425903 
	C751.356628,1518.246582 753.579712,1517.729004 755.804382,1517.722412 
	C771.467407,1517.675537 787.132141,1517.623413 802.793152,1517.826782 
	C807.413879,1517.886719 812.132324,1518.301025 816.618958,1519.351562 
	C830.786560,1522.668701 838.672424,1531.303955 840.057007,1544.365845 
	C841.793091,1560.743530 836.338196,1572.016113 823.375732,1578.674805 
	C821.069397,1579.859375 818.638794,1580.802002 815.906616,1582.015869 
	C832.572876,1599.445923 838.546387,1621.795532 849.412415,1642.854614 
	C846.276672,1643.324951 844.750549,1643.705200 843.214050,1643.753052 
	C839.941162,1643.854858 836.662903,1643.784180 833.942688,1643.784180 
	C828.819336,1631.179199 824.257507,1619.423706 819.236450,1607.867676 
	C817.264099,1603.328491 814.492249,1599.078857 811.673523,1594.979980 
	C808.305908,1590.083374 803.279846,1586.822510 797.495117,1586.539917 
	C786.273132,1585.991455 775.005371,1586.379517 763.048950,1586.379517 
	C763.048950,1605.603516 763.048950,1624.048950 763.048950,1643.028687 
	C761.120300,1643.285645 759.217346,1643.726318 757.309692,1643.747681 
	C754.724792,1643.776733 752.136353,1643.484131 749.938110,1643.352783 
	C749.938110,1619.493774 749.938110,1596.246948 749.938110,1572.000000 
M820.707764,1567.788452 
	C821.366455,1567.041992 822.145264,1566.370605 822.666077,1565.537842 
	C833.383911,1548.398804 825.847839,1531.794922 805.853088,1529.518188 
	C796.334534,1528.434204 786.646606,1528.806519 777.033691,1528.596558 
	C772.494080,1528.497192 767.950623,1528.579468 762.859619,1528.579468 
	C762.859619,1544.439941 762.859619,1558.857666 762.859619,1574.494995 
	C775.902588,1574.494995 788.422180,1574.396118 800.939148,1574.534180 
	C807.816467,1574.609985 814.097229,1573.132812 820.707764,1567.788452 
z"/>
<path fill="#C6D0D9" opacity="1.000000" stroke="none" 
	d="
M1256.103760,1643.931641 
	C1249.208008,1643.932861 1243.291992,1643.932861 1237.326416,1643.932861 
	C1237.326416,1601.813721 1237.326416,1560.624512 1237.326416,1518.575806 
	C1238.925415,1518.324341 1241.052368,1517.706787 1243.181396,1517.699829 
	C1260.836792,1517.642212 1278.492554,1517.700195 1296.148193,1517.717529 
	C1303.755371,1517.724976 1311.362427,1517.718750 1320.028564,1517.718750 
	C1320.028564,1520.890503 1320.028564,1524.875488 1320.028564,1529.837891 
	C1297.392334,1529.837891 1274.940186,1529.837891 1251.883301,1529.837891 
	C1251.883301,1543.940308 1251.883301,1557.106201 1251.883301,1571.759644 
	C1262.223877,1571.774536 1272.430664,1571.794678 1282.637451,1571.802246 
	C1292.536865,1571.809570 1302.436279,1571.803833 1312.945190,1571.803833 
	C1312.945190,1575.219849 1312.945190,1579.033325 1312.945190,1583.909668 
	C1292.562988,1583.909668 1272.453247,1583.909668 1251.815186,1583.909668 
	C1251.815186,1600.140259 1251.815186,1615.334961 1251.815186,1631.996094 
	C1274.755737,1632.185669 1297.585449,1632.095581 1321.466919,1631.937256 
	C1321.661133,1635.664429 1321.842651,1639.149902 1322.091797,1643.930542 
	C1300.046753,1643.930542 1278.565186,1643.930542 1256.103760,1643.931641 
z"/>
<path fill="#C2CCD5" opacity="1.000000" stroke="none" 
	d="
M1177.632080,1537.625732 
	C1182.047974,1533.038574 1186.626709,1529.394165 1189.717651,1524.757935 
	C1193.793457,1518.644287 1198.916016,1516.703247 1205.753540,1517.707642 
	C1207.594482,1517.978149 1209.463745,1518.056152 1213.730957,1518.438477 
	C1195.829834,1536.496094 1179.349243,1553.120728 1162.017578,1570.603882 
	C1180.892090,1594.603149 1199.476562,1618.233643 1218.972778,1643.023315 
	C1214.913696,1643.355957 1212.115601,1643.484863 1209.345337,1643.834106 
	C1204.207153,1644.481812 1201.105957,1642.519409 1197.879395,1638.137207 
	C1183.489258,1618.593628 1168.485840,1599.501465 1152.866699,1579.155396 
	C1146.727173,1585.103882 1140.811523,1590.304199 1135.633057,1596.156860 
	C1133.947021,1598.062256 1133.677002,1601.662720 1133.631592,1604.501953 
	C1133.429443,1617.111084 1133.543945,1629.725342 1133.543945,1643.071045 
	C1129.268066,1643.071045 1125.175293,1643.071045 1120.451660,1643.071045 
	C1120.451660,1601.770264 1120.451660,1560.627686 1120.451660,1518.605225 
	C1124.283203,1518.605225 1128.392700,1518.605225 1133.330444,1518.605225 
	C1133.330444,1538.375610 1133.330444,1558.514038 1133.330444,1581.261475 
	C1142.501343,1573.438232 1149.014771,1566.138062 1155.948608,1559.327759 
	C1163.075439,1552.327515 1170.076538,1545.199341 1177.632080,1537.625732 
z"/>
<path fill="#C5CFD8" opacity="1.000000" stroke="none" 
	d="
M738.156494,1262.068359 
	C747.155884,1239.824951 755.889343,1218.302246 764.715698,1196.550537 
	C769.820679,1196.550537 774.761108,1196.550537 780.419067,1196.550537 
	C797.460449,1238.427734 814.571045,1280.474976 832.063171,1323.459717 
	C826.892151,1323.459717 822.199829,1323.459717 816.842468,1323.459717 
	C812.167297,1311.397583 807.294678,1298.825806 802.392029,1286.176514 
	C782.384338,1286.176514 763.169617,1286.176514 742.790405,1286.176514 
	C738.168518,1298.232666 733.449036,1310.543457 728.419434,1323.663086 
	C724.285889,1323.663086 719.442871,1323.663086 713.187683,1323.663086 
	C721.568054,1303.011597 729.729309,1282.900269 738.156494,1262.068359 
M785.562561,1241.518433 
	C781.464844,1231.201416 777.367188,1220.884521 772.388062,1208.348267 
	C764.037109,1231.493896 754.835083,1251.825928 747.877869,1273.523926 
	C764.828979,1273.523926 780.364685,1273.523926 796.742737,1273.523926 
	C794.713196,1262.273560 789.434875,1252.938599 785.562561,1241.518433 
z"/>
<path fill="#C5CFD8" opacity="1.000000" stroke="none" 
	d="
M963.776733,1610.107544 
	C968.370789,1621.238403 972.695312,1631.652222 977.393433,1642.965576 
	C972.196472,1642.965576 967.489868,1642.965576 962.078857,1642.965576 
	C957.552612,1631.121216 952.840576,1618.790649 948.044983,1606.241455 
	C928.562561,1606.241455 909.663452,1606.241455 889.317017,1606.241455 
	C884.727722,1618.007690 879.938171,1630.287354 874.894775,1643.217773 
	C870.546509,1643.217773 865.714478,1643.217773 860.072327,1643.217773 
	C876.970459,1601.532715 893.674194,1560.327026 910.668640,1518.404297 
	C915.426331,1518.404297 920.602234,1518.404297 926.487244,1518.404297 
	C938.731934,1548.498901 951.119568,1578.944580 963.776733,1610.107544 
M936.227417,1574.818115 
	C930.541077,1560.334106 924.854675,1545.850220 918.472046,1529.592773 
	C909.848755,1551.993042 901.955017,1572.498169 893.819885,1593.630615 
	C910.700867,1593.630615 926.168091,1593.630615 942.936890,1593.630615 
	C940.702637,1587.289673 938.760925,1581.779053 936.227417,1574.818115 
z"/>
<path fill="#C5CFD8" opacity="1.000000" stroke="none" 
	d="
M1018.565796,1639.796021 
	C1003.457397,1630.965454 995.459106,1617.860962 991.997375,1601.942627 
	C987.403625,1580.818848 988.973267,1560.423462 999.517761,1540.929321 
	C1017.582214,1507.532471 1068.669922,1509.622681 1085.811768,1531.184204 
	C1087.465698,1533.264526 1089.260742,1535.285156 1090.572510,1537.572876 
	C1092.536255,1540.997925 1094.129517,1544.635254 1096.437622,1549.311523 
	C1091.736450,1550.617310 1087.831665,1551.702026 1084.629028,1552.591553 
	C1083.398560,1551.644653 1083.000122,1551.497192 1082.889526,1551.230225 
	C1074.150513,1530.168823 1057.459961,1525.133911 1038.336304,1527.843018 
	C1021.751831,1530.192261 1008.786499,1543.533691 1004.675720,1563.076782 
	C1001.830872,1576.601807 1002.123230,1590.231689 1006.206848,1603.552856 
	C1012.794434,1625.042236 1030.541870,1636.714355 1052.875610,1633.905151 
	C1066.735107,1632.161865 1077.243774,1625.396240 1082.281006,1611.682007 
	C1083.075562,1609.518433 1083.918823,1607.372925 1085.135986,1604.179321 
	C1089.171143,1605.107422 1093.172852,1606.027832 1097.141846,1606.940674 
	C1093.365479,1629.076172 1076.139404,1644.097656 1053.297852,1645.774292 
	C1041.497437,1646.640503 1030.013672,1645.486938 1018.565796,1639.796021 
z"/>
<path fill="#C5CFD7" opacity="1.000000" stroke="none" 
	d="
M1159.170776,1208.274902 
	C1156.026489,1208.460938 1153.755615,1208.623169 1150.844238,1208.831177 
	C1150.844238,1204.614990 1150.844238,1200.800903 1150.844238,1196.350220 
	C1185.500244,1196.350220 1219.949341,1196.350220 1255.085693,1196.350220 
	C1255.085693,1200.228394 1255.085693,1204.030396 1255.085693,1208.335938 
	C1240.550415,1208.335938 1226.045166,1208.335938 1210.195190,1208.335938 
	C1209.354492,1217.944580 1209.888428,1227.480713 1209.796143,1236.968872 
	C1209.702148,1246.629272 1209.775391,1256.291504 1209.775391,1265.952881 
	C1209.775391,1275.614380 1209.775391,1285.275757 1209.775391,1294.937256 
	C1209.775391,1304.550659 1209.775513,1314.164062 1209.775513,1324.436646 
	C1205.338379,1324.436646 1201.183472,1324.436646 1196.259277,1324.436646 
	C1196.259277,1285.995483 1196.259277,1247.845703 1196.259277,1208.365112 
	C1183.741577,1207.804932 1171.891357,1208.067261 1159.170776,1208.274902 
z"/>
<path fill="#C3CED6" opacity="1.000000" stroke="none" 
	d="
M951.964539,1274.000000 
	C951.964539,1247.753540 951.964539,1222.507080 951.964539,1196.648071 
	C955.990112,1196.648071 960.457703,1196.648071 965.869019,1196.648071 
	C965.869019,1235.020874 965.869019,1273.106201 965.869019,1311.748047 
	C989.968506,1311.748047 1013.158081,1311.748047 1037.227783,1311.748047 
	C1037.227783,1316.346313 1037.227783,1320.397339 1037.227783,1325.054810 
	C1008.760620,1325.054810 980.308594,1325.054810 951.964539,1325.054810 
	C951.964539,1308.035400 951.964539,1291.517700 951.964539,1274.000000 
z"/>
<path fill="#C4CED7" opacity="1.000000" stroke="none" 
	d="
M907.988098,1312.344482 
	C917.587524,1312.344482 926.190125,1312.344482 935.532959,1312.344482 
	C935.532959,1316.623413 935.532959,1320.665894 935.532959,1324.923828 
	C906.933105,1324.923828 878.808350,1324.923828 850.212646,1324.923828 
	C850.212646,1282.063232 850.212646,1239.909424 850.212646,1196.926514 
	C854.355774,1196.926514 858.475769,1196.926514 863.576538,1196.926514 
	C863.576538,1234.707886 863.576538,1272.769897 863.576538,1312.171753 
	C878.655029,1312.231689 892.823181,1312.288086 907.988098,1312.344482 
z"/>
<path fill="#FCFDFD" opacity="1.000000" stroke="none" 
	d="
M1637.096680,1340.874146 
	C1619.706299,1364.198975 1589.778564,1365.112915 1571.560303,1352.616333 
	C1550.783081,1338.364380 1544.319824,1310.618774 1557.071289,1289.017456 
	C1569.902710,1267.280884 1597.379517,1259.072144 1619.663940,1270.317505 
	C1642.519043,1281.850952 1652.351562,1309.222656 1641.909058,1332.457642 
	C1640.687744,1335.175049 1638.999023,1337.682251 1637.096680,1340.874146 
z"/>
<path fill="#476266" opacity="1.000000" stroke="none" 
	d="
M1357.646484,1552.003906 
	C1357.646240,1544.064697 1357.646240,1537.113892 1357.646240,1529.666016 
	C1360.505127,1529.240479 1362.710571,1528.594482 1364.902100,1528.638428 
	C1377.519653,1528.892212 1390.175903,1528.791748 1402.737427,1529.814697 
	C1415.548706,1530.858032 1421.810425,1538.348511 1421.855103,1550.838989 
	C1421.898193,1562.874146 1414.390259,1573.021606 1402.706299,1573.833374 
	C1388.215698,1574.839966 1373.602051,1574.074341 1357.646729,1574.074341 
	C1357.646729,1566.725342 1357.646729,1559.858887 1357.646484,1552.003906 
z"/>
<path fill="#486366" opacity="1.000000" stroke="none" 
	d="
M820.144165,1568.314453 
	C814.097229,1573.132812 807.816467,1574.609985 800.939148,1574.534180 
	C788.422180,1574.396118 775.902588,1574.494995 762.859619,1574.494995 
	C762.859619,1558.857666 762.859619,1544.439941 762.859619,1528.579468 
	C767.950623,1528.579468 772.494080,1528.497192 777.033691,1528.596558 
	C786.646606,1528.806519 796.334534,1528.434204 805.853088,1529.518188 
	C825.847839,1531.794922 833.383911,1548.398804 822.666077,1565.537842 
	C822.145264,1566.370605 821.366455,1567.041992 820.144165,1568.314453 
z"/>
<path fill="#486366" opacity="1.000000" stroke="none" 
	d="
M785.793274,1242.253662 
	C789.434875,1252.938599 794.713196,1262.273560 796.742737,1273.523926 
	C780.364685,1273.523926 764.828979,1273.523926 747.877869,1273.523926 
	C754.835083,1251.825928 764.037109,1231.493896 772.388062,1208.348267 
	C777.367188,1220.884521 781.464844,1231.201416 785.793274,1242.253662 
z"/>
<path fill="#486366" opacity="1.000000" stroke="none" 
	d="
M936.523315,1575.543213 
	C938.760925,1581.779053 940.702637,1587.289673 942.936890,1593.630615 
	C926.168091,1593.630615 910.700867,1593.630615 893.819885,1593.630615 
	C901.955017,1572.498169 909.848755,1551.993042 918.472046,1529.592773 
	C924.854675,1545.850220 930.541077,1560.334106 936.523315,1575.543213 
z"/>
</svg>